<?xml version="1.0" encoding="UTF-8" standalone="no"?>
<svg
   xmlns:dc="http://purl.org/dc/elements/1.1/"
   xmlns:cc="http://creativecommons.org/ns#"
   xmlns:rdf="http://www.w3.org/1999/02/22-rdf-syntax-ns#"
   xmlns:svg="http://www.w3.org/2000/svg"
   xmlns="http://www.w3.org/2000/svg"
   viewBox="0 0 1587.4 1122.52"
   height="1122.52"
   width="1587.4"
   xml:space="preserve"
   id="svg2"
   version="1.1"><metadata
     id="metadata8"><rdf:RDF><cc:Work
         rdf:about=""><dc:format>image/svg+xml</dc:format><dc:type
           rdf:resource="http://purl.org/dc/dcmitype/StillImage" /></cc:Work></rdf:RDF></metadata><defs
     id="defs6"><clipPath
       id="clipPath18"
       clipPathUnits="userSpaceOnUse"><path
         id="path16"
         d="M 0,841.89 H 1190.55 V 0 H 0 Z" /></clipPath></defs><g
     transform="matrix(1.3333333,0,0,-1.3333333,0,1122.52)"
     id="g10"><g
       id="g12"><g
         clip-path="url(#clipPath18)"
         id="g14"><g
           transform="translate(916.7292,176.6875)"
           id="g20"><path
             id="path22"
             style="fill:#19365a;fill-opacity:1;fill-rule:nonzero;stroke:none"
             d="m 0,0 c 0,-26.338 13.345,-37.795 49.368,-37.795 h 1.178 c 36.018,0 49.484,11.457 49.484,37.795 v 6.257 c 0,1.42 -0.71,2.009 -2.124,2.009 H 75.348 c -1.535,0 -2.129,-0.589 -2.129,-2.009 V 0 c 0,-10.632 -3.66,-13.582 -22.673,-13.582 H 49.368 C 30.471,-13.582 26.69,-10.632 26.69,0 v 60.352 c 0,10.742 3.781,13.582 22.678,13.582 h 1.178 c 19.013,0 22.673,-2.84 22.673,-13.582 v -6.147 c 0,-1.414 0.594,-2.124 2.129,-2.124 h 22.558 c 1.414,0 2.124,0.71 2.124,2.124 v 6.147 c 0,26.333 -13.466,37.906 -49.484,37.906 H 49.368 C 13.345,98.258 0,86.685 0,60.352 Z" /></g><g
           transform="translate(891.4542,162.752)"
           id="g24"><path
             id="path26"
             style="fill:#19365a;fill-opacity:1;fill-rule:nonzero;stroke:none"
             d="m 0,0 c 0,1.414 -0.589,2.009 -2.003,2.009 h -50.078 v 106.407 c 0,1.415 -0.595,2.125 -2.009,2.125 h -22.673 c -1.419,0 -2.014,-0.71 -2.014,-2.125 V -20.196 c 0,-1.415 0.595,-2.009 2.014,-2.009 h 74.76 c 1.414,0 2.003,0.594 2.003,2.009 z" /></g><g
           transform="translate(672.6092,176.6875)"
           id="g28"><path
             id="path30"
             style="fill:#19365a;fill-opacity:1;fill-rule:nonzero;stroke:none"
             d="m 0,0 c 0,-25.865 12.872,-37.795 50.788,-37.795 h 1.293 c 37.796,0 50.788,11.93 50.788,37.795 v 60.352 c 0,25.981 -12.992,37.906 -50.788,37.906 H 50.788 C 12.872,98.258 0,86.333 0,60.352 Z M 50.788,-13.582 C 30.471,-13.582 26.69,-10.632 26.69,0 v 60.352 c 0,10.742 3.781,13.582 24.098,13.582 h 1.293 c 20.318,0 23.977,-2.84 23.977,-13.582 L 76.058,0 c 0,-10.632 -3.659,-13.582 -23.977,-13.582 z" /></g><g
           transform="translate(647.2201,141.9646)"
           id="g32"><path
             id="path34"
             style="fill:#19365a;fill-opacity:1;fill-rule:nonzero;stroke:none"
             d="m 0,0 c 0,0.352 0,0.825 -0.237,1.062 l -41.102,75.937 39.209,51.85 c 1.062,1.42 0.474,2.477 -1.177,2.477 h -26.927 c -1.068,0 -2.13,-0.473 -2.719,-1.293 l -42.99,-57.167 v 56.336 c 0,1.414 -0.589,2.124 -2.124,2.124 h -22.557 c -1.42,0 -2.13,-0.71 -2.13,-2.124 V 0.589 c 0,-1.414 0.71,-2.003 2.13,-2.003 h 22.557 c 1.535,0 2.124,0.589 2.124,2.003 v 34.84 L -59.527,54.327 -31.654,0 c 0.352,-1.062 1.183,-1.414 2.361,-1.414 h 27.4 C -0.831,-1.414 0,-0.825 0,0" /></g><g
           transform="translate(409.5981,176.3331)"
           id="g36"><path
             id="path38"
             style="fill:#19365a;fill-opacity:1;fill-rule:nonzero;stroke:none"
             d="m 0,0 c 0,-25.749 13.466,-37.443 48.185,-37.443 h 1.299 c 34.724,0 48.069,11.694 48.069,37.443 v 4.133 c 0,20.785 -8.034,30.823 -29.645,35.786 L 37.911,46.65 c -8.86,1.887 -10.275,3.775 -10.275,10.158 v 4.249 c 0,10.511 3.544,13.229 20.549,13.229 h 1.299 c 17.01,0 20.548,-2.718 20.548,-13.229 v -4.485 c 0,-1.42 0.595,-2.009 2.009,-2.009 h 22.673 c 1.42,0 2.014,0.589 2.014,2.009 v 4.485 c 0,25.743 -12.877,37.558 -47.244,37.558 H 48.185 C 13.818,98.615 0.825,86.8 0.825,61.057 v -4.249 c 0,-9.922 2.125,-17.367 6.378,-22.441 4.37,-4.958 12.162,-8.618 23.504,-11.337 L 60.699,16.295 C 68.734,14.407 70.863,11.452 70.863,4.133 V 0 c 0,-10.516 -3.665,-13.229 -21.379,-13.229 h -1.299 c -17.714,0 -21.374,2.713 -21.374,13.229 v 4.485 c 0,1.42 -0.594,2.124 -2.014,2.124 H 2.124 C 0.71,6.609 0,5.905 0,4.485 Z" /></g><g
           transform="translate(344.9951,142.5545)"
           id="g40"><path
             id="path42"
             style="fill:#19365a;fill-opacity:1;fill-rule:nonzero;stroke:none"
             d="m 0,0 c 0,-1.414 0.589,-2.003 2.009,-2.003 h 22.678 c 1.414,0 2.003,0.589 2.003,2.003 v 128.613 c 0,1.414 -0.589,2.124 -2.003,2.124 H 2.009 C 0.589,130.737 0,130.027 0,128.613 Z" /></g><g
           transform="translate(302.953,271.1668)"
           id="g44"><path
             id="path46"
             style="fill:#19365a;fill-opacity:1;fill-rule:nonzero;stroke:none"
             d="m 0,0 c 0,1.414 -0.594,2.124 -2.009,2.124 h -23.619 c -1.068,0 -1.893,-0.71 -2.482,-1.887 l -26.811,-59.874 c -3.896,-8.508 -6.609,-15.711 -8.387,-21.616 -1.887,5.905 -4.721,13.108 -8.618,21.616 L -98.737,0.237 c -0.588,1.177 -1.414,1.887 -2.481,1.887 h -23.62 c -1.414,0 -2.124,-0.71 -2.124,-2.124 v -128.613 c 0,-1.414 0.71,-2.003 2.124,-2.003 h 21.732 c 1.541,0 2.124,0.589 2.124,2.003 v 47.123 c 0,12.756 -0.473,25.513 -1.414,38.5 4.254,-14.996 8.381,-25.155 14.407,-38.5 l 12.283,-27.989 c 0.594,-1.062 1.299,-1.419 2.245,-1.419 h 19.954 c 1.068,0 1.893,0.357 2.367,1.419 l 12.283,27.989 c 6.02,13.345 10.158,23.504 14.407,38.5 -1.062,-12.987 -1.415,-25.744 -1.415,-38.5 v -47.123 c 0,-1.414 0.589,-2.003 2.003,-2.003 h 21.853 c 1.415,0 2.009,0.589 2.009,2.003 z" /></g><g
           transform="translate(305.3134,451.9045)"
           id="g48"><path
             id="path50"
             style="fill:#72be44;fill-opacity:1;fill-rule:evenodd;stroke:none"
             d="m 0,0 92.398,-57.12 c 1.518,-0.927 3.148,-0.927 4.638,0 L 189.462,0 c 1.518,0.928 3.12,0.928 4.638,0 l 92.426,-57.12 c 1.518,-0.927 3.12,-0.927 4.638,0 L 383.59,0 c 1.518,0.928 3.121,0.928 4.638,0 l 92.427,-57.12 c 1.489,-0.927 3.12,-0.927 4.638,0 L 577.719,0 c 1.489,0.928 2.305,2.361 2.305,4.16 v 234.467 c 0,1.77 -0.816,3.232 -2.305,4.16 l -92.426,57.12 c -1.518,0.927 -3.149,0.927 -4.638,0 L 291.164,182.8 c -1.518,-0.928 -3.12,-0.928 -4.638,0 L 97.036,299.907 c -1.49,0.927 -3.12,0.927 -4.638,0 L 0,242.787 c -1.518,-0.928 -2.333,-2.39 -2.333,-4.16 V 4.16 C -2.333,2.361 -1.518,0.928 0,0" /></g><g
           transform="translate(305.3134,451.9045)"
           id="g52"><path
             id="path54"
             style="fill:#599134;fill-opacity:1;fill-rule:evenodd;stroke:none"
             d="m 0,0 92.398,-57.12 c 1.518,-0.927 3.148,-0.927 4.638,0 L 189.462,0 c 1.518,0.928 3.12,0.928 4.638,0 L -2.333,121.379 V 4.16 C -2.333,2.361 -1.518,0.928 0,0" /></g><g
           transform="translate(596.4777,394.7848)"
           id="g56"><path
             id="path58"
             style="fill:#599134;fill-opacity:1;fill-rule:evenodd;stroke:none"
             d="M 0,0 C -0.759,-0.478 -1.546,-0.703 -2.305,-0.703 V 118.54 l 194.1,119.946 v 119.243 c 0.787,0 1.574,-0.225 2.333,-0.703 l 92.426,-57.119 c 1.49,-0.928 2.305,-2.39 2.305,-4.161 V 178.499 C 192.582,119.018 96.277,59.509 0,0" /></g><g
           transform="translate(594.1727,513.3251)"
           id="g60"><path
             id="path62"
             style="fill:#599134;fill-opacity:1;fill-rule:evenodd;stroke:none"
             d="m 0,0 -194.128,119.946 v 119.243 c 0.787,0 1.546,-0.225 2.305,-0.703 L -2.333,121.379 c 0.759,-0.449 1.518,-0.702 2.333,-0.702 z" /></g></g></g></g></svg>